<?xml version="1.0" encoding="utf-8"?>
<!-- Generator: Adobe Illustrator 18.0.0, SVG Export Plug-In . SVG Version: 6.00 Build 0)  -->
<!DOCTYPE svg PUBLIC "-//W3C//DTD SVG 1.1//EN" "http://www.w3.org/Graphics/SVG/1.1/DTD/svg11.dtd">
<svg version="1.1" id="Camada_1" xmlns="http://www.w3.org/2000/svg" xmlns:xlink="http://www.w3.org/1999/xlink" x="0px" y="0px"
	 viewBox="152.5 -4.8 285 845.4" enable-background="new 152.5 -4.8 285 845.4" xml:space="preserve">
<g>
	<g>
		<circle fill="#FFFFFF" cx="294.7" cy="770.5" r="60.2"/>
		<path fill="#457FF5" d="M294.7,710.6c33,0,59.9,26.9,59.9,59.9s-26.9,59.9-59.9,59.9s-59.9-26.9-59.9-59.9
			S261.6,710.6,294.7,710.6 M294.7,709.9c-33.4,0-60.6,27.1-60.6,60.6s27.1,60.6,60.6,60.6s60.6-27.1,60.6-60.6
			S328.1,709.9,294.7,709.9L294.7,709.9z"/>
	</g>
	<g>
		<circle fill="#457FF5" cx="294.7" cy="770.5" r="32.5"/>
		<path fill="#457FF5" d="M294.7,738.6c17.5,0,31.8,14.3,31.8,31.8s-14.3,31.8-31.8,31.8s-31.8-14.3-31.8-31.8
			S277.1,738.6,294.7,738.6 M294.7,737.3c-18.3,0-33.2,14.8-33.2,33.2s14.8,33.2,33.2,33.2c18.3,0,33.2-14.8,33.2-33.2
			S313,737.3,294.7,737.3L294.7,737.3z"/>
	</g>
	<g>
		<g>
			<rect x="297.3" y="767.2" fill="#FFFFFF" width="16" height="20.3"/>
			<path fill="#457FF5" d="M312.9,767.5v19.6h-15.3v-19.6H312.9 M313.6,766.9H297v21h16.7V766.9L313.6,766.9z"/>
		</g>
		<g>
			<rect x="276.7" y="754.3" fill="#FFFFFF" width="25.1" height="33.2"/>
			<path fill="#457FF5" d="M301.5,754.7v32.6h-24.4v-32.6H301.5 M302.2,754h-25.8v33.9h25.8V754L302.2,754z"/>
		</g>
		<g>
			<rect x="279" y="758.1" fill="#457FF5" width="5.6" height="5.6"/>
		</g>
		<g>
			<rect x="286.3" y="758.1" fill="#457FF5" width="5.6" height="5.6"/>
		</g>
		<g>
			<rect x="293.7" y="758.1" fill="#457FF5" width="5.6" height="5.6"/>
		</g>
		<g>
			<rect x="279" y="766.9" fill="#457FF5" width="5.6" height="5.6"/>
		</g>
		<g>
			<rect x="286.3" y="766.9" fill="#457FF5" width="5.6" height="5.6"/>
		</g>
		<g>
			<rect x="284.8" y="777.2" fill="#457FF5" width="8.9" height="8.8"/>
		</g>
		<g>
			<rect x="293.7" y="766.9" fill="#457FF5" width="5.6" height="5.6"/>
		</g>
		<g>
			<rect x="304.4" y="769.8" fill="#457FF5" width="5.6" height="5.6"/>
		</g>
		<rect x="279" y="750.3" fill="#FFFFFF" width="20.2" height="3.7"/>
		<rect x="304.4" y="764.7" fill="#FFFFFF" width="5.6" height="2.2"/>
	</g>
	<polyline fill="none" stroke="#457FF5" stroke-width="2" stroke-linejoin="round" stroke-miterlimit="10" points="295,80.5 
		295,384.4 261.8,384.4 261.8,489.3 328.2,489.3 328.2,649.1 295,649.1 295,710.2 	"/>
	<polyline fill="none" stroke="#FF4047" stroke-width="2" stroke-linejoin="round" stroke-miterlimit="10" points="179.3,67.9 
		179.3,251 277.4,251 277.4,370.2 245.6,370.2 245.6,503.5 314,503.5 314,634.2 278.1,634.2 278.1,721 	"/>
	<polyline fill="none" stroke="#43C9B9" stroke-linejoin="round" stroke-miterlimit="10" points="229.3,63.9 229.3,439.4 
		296.6,439.4 296.6,619.8 256.8,619.8 	"/>
	<polyline fill="none" stroke="#FF931E" stroke-linejoin="round" stroke-miterlimit="10" points="360.7,63.9 360.7,217.2 
		199.6,217.2 199.6,318.2 339.3,318.2 339.3,411.4 199.2,411.4 199.2,455.3 	"/>
	<polyline fill="none" stroke="#1FB4FF" stroke-linejoin="round" stroke-miterlimit="10" points="411.8,63.9 411.8,251 306.8,251 
		306.8,370.2 365.4,370.2 365.4,529.7 	"/>
	<g>
		<circle fill="#FF4047" cx="277.7" cy="740.7" r="20.3"/>
		<path fill="#FF4047" d="M277.7,721c10.8,0,19.6,8.8,19.6,19.6c0,10.8-8.8,19.6-19.6,19.6c-10.8,0-19.6-8.8-19.6-19.6
			C258.1,729.8,266.9,721,277.7,721 M277.7,719.7c-11.6,0-21,9.4-21,21c0,11.6,9.4,21,21,21s21-9.4,21-21
			C298.7,729.1,289.3,719.7,277.7,719.7L277.7,719.7z"/>
	</g>
	<g>
		<circle fill="#FFFFFF" cx="365.3" cy="550.7" r="20.6"/>
		<g>
			<path fill="#1FB4FF" d="M365.3,530.4c11.2,0,20.3,9.1,20.3,20.3s-9.1,20.3-20.3,20.3s-20.3-9.1-20.3-20.3
				S354.2,530.4,365.3,530.4 M365.3,529.7c-11.6,0-21,9.4-21,21s9.4,21,21,21s21-9.4,21-21S376.9,529.7,365.3,529.7L365.3,529.7z"/>
		</g>
	</g>
	<g>
		<circle fill="#FFFFFF" cx="236.4" cy="619.8" r="20.6"/>
		<g>
			<path fill="#43C9B9" d="M236.4,599.5c11.2,0,20.3,9.1,20.3,20.3s-9.1,20.3-20.3,20.3c-11.2,0-20.3-9.1-20.3-20.3
				S225.1,599.5,236.4,599.5 M236.4,598.8c-11.6,0-21,9.4-21,21s9.4,21,21,21c11.6,0,21-9.4,21-21S248,598.8,236.4,598.8
				L236.4,598.8z"/>
		</g>
	</g>
	<g>
		<circle fill="#FFFFFF" cx="199.2" cy="476.3" r="20.6"/>
		<g>
			<path fill="#FF931E" d="M199.2,456c11.2,0,20.3,9.1,20.3,20.3c0,11.2-9.1,20.3-20.3,20.3c-11.2,0-20.3-9.1-20.3-20.3
				C178.9,465.1,188.1,456,199.2,456 M199.2,455.3c-11.6,0-21,9.4-21,21c0,11.6,9.4,21,21,21s21-9.4,21-21
				C220.2,464.7,210.8,455.3,199.2,455.3L199.2,455.3z"/>
		</g>
	</g>
	<g>
		<g>
			<circle fill="#FFFFFF" cx="178.9" cy="47.6" r="20.6"/>
			<path fill="#FF4047" d="M178.9,27.3c11.2,0,20.3,9.1,20.3,20.3s-9.1,20.3-20.3,20.3c-11.2,0-20.3-9.1-20.3-20.3
				S167.7,27.3,178.9,27.3 M178.9,26.6c-11.6,0-21,9.4-21,21s9.4,21,21,21s21-9.4,21-21S190.5,26.6,178.9,26.6L178.9,26.6z"/>
		</g>
		<g>
			<circle fill="#FF4047" cx="179.2" cy="39.3" r="5.7"/>
			<path fill="#FF4047" d="M189.7,57.6c0,6-21.7,6-21.7,0s4.9-10.8,10.8-10.8S189.7,51.6,189.7,57.6z"/>
		</g>
	</g>
	<g>
		<g>
			<circle fill="#FFFFFF" cx="229.7" cy="47.6" r="20.6"/>
			<path fill="#43C9B9" d="M229.7,27.3c11.2,0,20.3,9.1,20.3,20.3s-9.1,20.3-20.3,20.3c-11.2,0-20.3-9.1-20.3-20.3
				S218.5,27.3,229.7,27.3 M229.7,26.6c-11.6,0-21,9.4-21,21s9.4,21,21,21s21-9.4,21-21S241.3,26.6,229.7,26.6L229.7,26.6z"/>
		</g>
		<g>
			<circle fill="#43C9B9" cx="230" cy="39.3" r="5.7"/>
			<path fill="#43C9B9" d="M240.5,57.6c0,6-21.7,6-21.7,0s4.9-10.8,10.8-10.8S240.5,51.6,240.5,57.6z"/>
		</g>
	</g>
	<g>
		<ellipse fill="#43C9B9" cx="236.6" cy="611.4" rx="5.7" ry="5.7"/>
		<path fill="#43C9B9" d="M247.2,629.7c0,6-21.7,6-21.7,0s4.9-10.8,10.8-10.8S247.2,623.7,247.2,629.7z"/>
	</g>
	<g>
		<g>
			<circle fill="#FFFFFF" cx="360.3" cy="47.6" r="20.6"/>
			<path fill="#FF931E" d="M360.3,27.3c11.2,0,20.3,9.1,20.3,20.3s-9.1,20.3-20.3,20.3c-11.2,0-20.3-9.1-20.3-20.3
				S349.1,27.3,360.3,27.3 M360.3,26.6c-11.6,0-21,9.4-21,21s9.4,21,21,21c11.6,0,21-9.4,21-21S371.9,26.6,360.3,26.6L360.3,26.6z"
				/>
		</g>
		<g>
			<circle fill="#FF931E" cx="360.6" cy="39.3" r="5.7"/>
			<path fill="#FF931E" d="M371.1,57.6c0,6-21.7,6-21.7,0s4.9-10.8,10.8-10.8C366.3,46.7,371.1,51.6,371.1,57.6z"/>
		</g>
	</g>
	<g>
		<circle fill="#FF931E" cx="199.5" cy="467.2" r="5.7"/>
		<path fill="#FF931E" d="M210.1,485.5c0,6-21.7,6-21.7,0s4.9-10.8,10.8-10.8S210.1,479.5,210.1,485.5z"/>
	</g>
	<g>
		<g>
			<circle fill="#FFFFFF" cx="411.4" cy="47.6" r="20.6"/>
			<path fill="#1FB4FF" d="M411.4,27.3c11.2,0,20.3,9.1,20.3,20.3s-9.1,20.3-20.3,20.3c-11.2,0-20.3-9.1-20.3-20.3
				S400.3,27.3,411.4,27.3 M411.4,26.6c-11.6,0-21,9.4-21,21s9.4,21,21,21s21-9.4,21-21S423,26.6,411.4,26.6L411.4,26.6z"/>
		</g>
		<g>
			<circle fill="#1FB4FF" cx="411.4" cy="39.3" r="5.7"/>
			<path fill="#1FB4FF" d="M421.9,57.6c0,6-21.7,6-21.7,0s4.9-10.8,10.8-10.8C417,46.7,421.9,51.6,421.9,57.6z"/>
		</g>
	</g>
	<g>
		<circle fill="#1FB4FF" cx="365.6" cy="542.3" r="5.7"/>
		<path fill="#1FB4FF" d="M376.2,560.6c0,6-21.7,6-21.7,0s4.9-10.8,10.8-10.8C371.3,549.7,376.2,554.6,376.2,560.6z"/>
	</g>
	<g>
		<circle fill="#FFFFFF" cx="295.3" cy="47.6" r="32.8"/>
		<path fill="#457FF5" d="M295.3,15.1c17.9,0,32.5,14.6,32.5,32.5s-14.6,32.5-32.5,32.5s-32.5-14.6-32.5-32.5S277.4,15.1,295.3,15.1
			 M295.3,14.5c-18.3,0-33.2,14.8-33.2,33.2s14.8,33.2,33.2,33.2s33.2-14.8,33.2-33.2S313.7,14.5,295.3,14.5L295.3,14.5z"/>
	</g>
	<g>
		<g>
			<rect x="297.3" y="45.1" fill="#457FF5" width="16" height="20.3"/>
			<path fill="#FFFFFF" d="M312.9,45.5v19.6h-15.3V45.5H312.9 M313.6,44.8H297v21h16.7V44.8L313.6,44.8z"/>
		</g>
		<g>
			<rect x="276.7" y="32.2" fill="#457FF5" width="25.1" height="33.2"/>
			<path fill="#FFFFFF" d="M301.5,32.5v32.6h-24.4V32.5H301.5 M302.2,31.9h-25.8v33.9h25.8V31.9L302.2,31.9z"/>
		</g>
		<g>
			<rect x="279" y="35.9" fill="#FFFFFF" width="5.6" height="5.6"/>
		</g>
		<g>
			<rect x="286.3" y="35.9" fill="#FFFFFF" width="5.6" height="5.6"/>
		</g>
		<g>
			<rect x="293.7" y="35.9" fill="#FFFFFF" width="5.6" height="5.6"/>
		</g>
		<g>
			<rect x="279" y="44.8" fill="#FFFFFF" width="5.6" height="5.6"/>
		</g>
		<g>
			<rect x="286.3" y="44.8" fill="#FFFFFF" width="5.6" height="5.6"/>
		</g>
		<g>
			<rect x="284.8" y="55.1" fill="#FFFFFF" width="8.9" height="8.8"/>
		</g>
		<g>
			<rect x="293.7" y="44.8" fill="#FFFFFF" width="5.6" height="5.6"/>
		</g>
		<g>
			<rect x="304.4" y="47.7" fill="#FFFFFF" width="5.6" height="5.6"/>
		</g>
		<rect x="279" y="28.2" fill="#457FF5" width="20.2" height="3.7"/>
		<rect x="304.4" y="42.6" fill="#457FF5" width="5.6" height="2.2"/>
	</g>
	<g>
		<circle fill="#FFFFFF" cx="278" cy="732.3" r="5.7"/>
		<path fill="#FFFFFF" d="M288.6,750.6c0,6-21.7,6-21.7,0s4.9-10.8,10.8-10.8S288.6,744.6,288.6,750.6z"/>
	</g>
</g>
<text transform="matrix(1 0 0 1 277.0612 11.7048)" fill="#457FF5" font-family="'OpenSans'" font-size="8.1224">EMPRESA</text>
<text transform="matrix(1 0 0 1 155.7569 23.0529)" fill="#FF4047" font-family="'OpenSans'" font-size="6.7687">PROFISSIONAL</text>
<text transform="matrix(1 0 0 1 206.2766 23.0529)" fill="#43C9B9" font-family="'OpenSans'" font-size="6.7687">PROFISSIONAL</text>
<text transform="matrix(1 0 0 1 337.7389 23.0529)" fill="#FF931E" font-family="'OpenSans'" font-size="6.7687">PROFISSIONAL</text>
<text transform="matrix(1 0 0 1 387.8435 23.0529)" fill="#1FB4FF" font-family="'OpenSans'" font-size="6.7687">PROFISSIONAL</text>
</svg>
